<svg xmlns="http://www.w3.org/2000/svg" viewBox="0 0 32 32" preserveAspectRatio="xMidYMid meet" style="width: 200px; height: 200px; transform-origin: 50% 50%; transform: scaleX(1) scaleY(1) rotate(0deg);"><defs><style>.cls-1{fill:#101820;}</style></defs><title/><g data-name="Layer 60" id="Layer_60" fill="#909094" style="fill:#909094;stroke:none" stroke="none" class=""><circle class="cls-1" cx="16" cy="16" r="1" fill="#909094" style="fill:#909094;stroke:none" stroke="none"/><path class="cls-1" d="M16,18a2,2,0,1,1,2-2A2,2,0,0,1,16,18Zm0-2Z" fill="#909094" style="fill:#909094;stroke:none" stroke="none"/><circle class="cls-1" cx="16" cy="5" r="1" fill="#909094" style="fill:#909094;stroke:none" stroke="none"/><path class="cls-1" d="M16,7a2,2,0,1,1,2-2A2,2,0,0,1,16,7Zm0-2Z" fill="#909094" style="fill:#909094;stroke:none" stroke="none"/><circle class="cls-1" cx="16" cy="27" r="1" fill="#909094" style="fill:#909094;stroke:none" stroke="none"/><path class="cls-1" d="M16,29a2,2,0,1,1,2-2A2,2,0,0,1,16,29Zm0-2Z" fill="#909094" style="fill:#909094;stroke:none" stroke="none"/></g></svg>